<svg xmlns="http://www.w3.org/2000/svg" width="240" height="240" viewBox="0 0 240 240"><rect width="240" height="240" fill="#fff"/><circle cx="120" cy="120" r="105" fill="#003DA5" opacity=".12"/><path d="M120 20 L210 70 L195 190 L120 220 L45 190 L30 70 Z" fill="#fff" stroke="#003DA5" stroke-width="8"/><path d="M60 75 H180 V105 H60 Z" fill="#003DA5"/><path d="M60 105 H180 V135 H60 Z" fill="#fff"/><path d="M60 135 H180 V165 H60 Z" fill="#009739"/><path d="M60 165 H180 V190 H60 Z" fill="#FFD100"/><path d="M108 75 H132 V190 H108 Z" fill="#D21034"/><polygon points="120,42 127,63 149,63 131,76 138,98 120,84 102,98 109,76 91,63 113,63" fill="#FFD100"/><text x="120" y="223" text-anchor="middle" font-family="Arial" font-size="18" font-weight="bold" fill="#003DA5">RCA</text></svg>
