<svg xmlns="http://www.w3.org/2000/svg" viewBox="0 0 320 220" role="img" aria-label="Drapeau animé de la République centrafricaine">
  <defs>
    <filter id="shadow" x="-20%" y="-20%" width="140%" height="140%">
      <feDropShadow dx="0" dy="8" stdDeviation="7" flood-color="#003DA5" flood-opacity=".25"/>
    </filter>
    <linearGradient id="waveLight" x1="0" x2="1">
      <stop offset="0%" stop-color="#ffffff" stop-opacity=".10"/>
      <stop offset="50%" stop-color="#ffffff" stop-opacity=".45"/>
      <stop offset="100%" stop-color="#000000" stop-opacity=".10"/>
      <animateTransform attributeName="gradientTransform" type="translate" values="-0.4 0;0.4 0;-0.4 0" dur="3.2s" repeatCount="indefinite"/>
    </linearGradient>
    <clipPath id="flagClip">
      <path d="M35,48 C83,28 115,66 160,46 C205,26 245,62 286,44 L286,174 C245,192 205,156 160,176 C115,196 83,158 35,178 Z">
        <animate attributeName="d" dur="3s" repeatCount="indefinite" values="M35,48 C83,28 115,66 160,46 C205,26 245,62 286,44 L286,174 C245,192 205,156 160,176 C115,196 83,158 35,178 Z;M35,44 C83,64 115,28 160,50 C205,72 245,34 286,54 L286,180 C245,160 205,198 160,174 C115,150 83,188 35,170 Z;M35,48 C83,28 115,66 160,46 C205,26 245,62 286,44 L286,174 C245,192 205,156 160,176 C115,196 83,158 35,178 Z"/>
      </path>
    </clipPath>
  </defs>
  <rect width="320" height="220" fill="transparent"/>
  <g filter="url(#shadow)">
    <g clip-path="url(#flagClip)">
      <rect x="35" y="44" width="251" height="34" fill="#003DA5"/>
      <rect x="35" y="78" width="251" height="34" fill="#FFFFFF"/>
      <rect x="35" y="112" width="251" height="34" fill="#009739"/>
      <rect x="35" y="146" width="251" height="34" fill="#FFD100"/>
      <rect x="145" y="44" width="30" height="136" fill="#D21034"/>
      <polygon points="76,56 83,76 104,76 87,88 94,108 76,96 58,108 65,88 48,76 69,76" fill="#FFD100"/>
      <rect x="35" y="44" width="251" height="136" fill="url(#waveLight)" opacity=".55"/>
    </g>
    <path d="M35,48 C83,28 115,66 160,46 C205,26 245,62 286,44 L286,174 C245,192 205,156 160,176 C115,196 83,158 35,178 Z" fill="none" stroke="#003DA5" stroke-width="4" opacity=".85">
      <animate attributeName="d" dur="3s" repeatCount="indefinite" values="M35,48 C83,28 115,66 160,46 C205,26 245,62 286,44 L286,174 C245,192 205,156 160,176 C115,196 83,158 35,178 Z;M35,44 C83,64 115,28 160,50 C205,72 245,34 286,54 L286,180 C245,160 205,198 160,174 C115,150 83,188 35,170 Z;M35,48 C83,28 115,66 160,46 C205,26 245,62 286,44 L286,174 C245,192 205,156 160,176 C115,196 83,158 35,178 Z"/>
    </path>
  </g>
</svg>
